<?xml version="1.0" standalone="no"?>
<!DOCTYPE svg PUBLIC "-//W3C//DTD SVG 20010904//EN"
 "http://www.w3.org/TR/2001/REC-SVG-20010904/DTD/svg10.dtd">
<svg version="1.0" xmlns="http://www.w3.org/2000/svg"
 width="396.000000pt" height="297.000000pt" viewBox="0 0 396.000000 297.000000"
 preserveAspectRatio="xMidYMid meet">

<g transform="translate(0.000000,297.000000) scale(0.100000,-0.100000)"
fill="#000000" stroke="none">
<path d="M0 1485 l0 -1485 1980 0 1980 0 0 1485 0 1485 -1980 0 -1980 0 0
-1485z m1855 289 c22 -18 97 -91 167 -163 88 -89 126 -135 122 -145 -15 -38
-51 -14 -204 139 -85 85 -163 155 -172 155 -10 0 -27 -9 -38 -20 -19 -19 -20
-33 -20 -265 0 -232 1 -246 20 -265 29 -29 56 -25 94 16 37 39 69 43 74 8 4
-27 -66 -89 -109 -98 -40 -8 -93 15 -116 50 -16 25 -18 53 -18 290 0 251 1
264 21 291 24 32 78 54 114 46 14 -4 43 -21 65 -39z m435 17 c46 -32 52 -74
48 -336 -3 -269 -7 -283 -73 -311 -65 -27 -87 -14 -257 155 -156 155 -181 190
-142 205 11 4 60 -38 166 -144 183 -183 190 -188 228 -150 19 19 20 33 20 265
0 232 -1 246 -20 265 -29 29 -51 25 -90 -15 -39 -41 -80 -48 -80 -13 0 26 70
95 102 101 33 6 69 -3 98 -22z"/>
</g>
</svg>
